# xmcd CD database file
#
# Track frame offsets:
#	150
#	13599
#	20590
#	34819
#	40700
#	63320
#	87130
#	119237
#	146363
#	178813
#	183072
#	192093
#	197182
#	235093
#	249237
#	332550
#
# Disc length: 4440 seconds
#
# Revision: 1
# Processed by: cddbd v1.5.1PL0 Copyright (c) Steve Scherf et al.
# Submitted via: CDex 1.51
#
DISCID=d3115610
DTITLE=R.O.D - R.O.D THE CD ｢僕の中学校は戦場だった｣
DYEAR=2004
DGENRE=Drama
TTITLE0=ワン・ショット・キル
TTITLE1=オープニング R.O.D Pubulic Pressure Version
TTITLE2=アニタ対岡原チキチキ三本勝負〜今こそ決着男vs女〜
TTITLE3=お姉ちゃんの歌
TTITLE4=アニタ対岡原牛乳勝負〜急いで吸え〜
TTITLE5=アニタ対岡原運動勝負〜跳んだ走った投げた〜
TTITLE6=アニタ対岡原放課後勝負〜マユ毛の秘密をさらけ出せ〜
TTITLE7=幕間劇〜いまどき姉妹物語〜
TTITLE8=謎の転校生
TTITLE9=続・お姉ちゃんの歌
TTITLE10=チング〜友へ〜
TTITLE11=巨乳、美乳、放課Go！
TTITLE12=男の屋上
TTITLE13=嵐が岡
TTITLE14=DATE 01
TTITLE15=DATE 02
EXTD=YEAR: 2004
EXTT0=
EXTT1=
EXTT2=
EXTT3=
EXTT4=
EXTT5=
EXTT6=
EXTT7=
EXTT8=
EXTT9=
EXTT10=
EXTT11=
EXTT12=
EXTT13=
EXTT14=
EXTT15=
PLAYORDER=
